<?xml version="1.0" encoding="utf-8"?>
<!-- Svg Vector Icons : http://www.onlinewebfonts.com/icon -->
<!DOCTYPE svg PUBLIC "-//W3C//DTD SVG 1.1//EN" "http://www.w3.org/Graphics/SVG/1.1/DTD/svg11.dtd">
<svg version="1.1" xmlns="http://www.w3.org/2000/svg" xmlns:xlink="http://www.w3.org/1999/xlink" x="0px" y="0px" viewBox="0 0 1000 1000" enable-background="new 0 0 1000 1000" xml:space="preserve">
<metadata> Svg Vector Icons : http://www.onlinewebfonts.com/icon </metadata>
<g><path d="M500,990c-66.1,0-130.3-13-190.7-38.5c-58.4-24.7-110.8-60-155.7-105c-45-45-80.3-97.4-105-155.7C23,630.3,10,566.1,10,500c0-66.1,13-130.3,38.5-190.7c24.7-58.4,60-110.8,105-155.7c45-45,97.4-80.3,155.7-105C369.7,23,433.9,10,500,10c66.1,0,130.3,13,190.7,38.5c58.4,24.7,110.8,60,155.7,105c45,45,80.3,97.4,105,155.7C977,369.7,990,433.9,990,500c0,66.1-13,130.3-38.5,190.7c-24.7,58.4-60,110.8-105,155.7c-45,45-97.4,80.3-155.7,105C630.3,977,566.1,990,500,990z M500,48.1C250.8,48.1,48.1,250.8,48.1,500c0,249.2,202.7,451.9,451.9,451.9c249.2,0,451.9-202.7,451.9-451.9C951.9,250.8,749.2,48.1,500,48.1z"/><path d="M502.7,336.6c-53.4,0-107.3-2.9-161.4-8.5c-147.3-15.5-242.6-46.4-246.6-47.7l11.9-36.2c1.3,0.4,96.5,31.1,239.8,46.1c132,13.8,333.1,16.7,541.3-47.8l11.3,36.4c-94.9,29.4-196.2,47.8-301.2,54.7C566.4,335.6,534.7,336.6,502.7,336.6z M100.7,262.3l5.9-18.1c0,0,0,0,0,0L100.7,262.3z"/><path d="M504.3,586.7c-62.4,0-125.3-4.4-188-13.1c-174-24.1-285.4-72.7-290-74.7L41.7,464c1.1,0.5,112.1,48.8,281.2,72c155.5,21.4,393.6,25.4,644.3-77l14.4,35.3c-114.5,46.7-235.9,76.1-360.9,87.2C582.2,585,543.4,586.7,504.3,586.7z"/><path d="M489.7,803.4c-56,0-111.9-3.4-166.9-10.1c-152.1-18.6-244.5-55.9-248.4-57.5l14.4-35.3l-7.2,17.6l7.2-17.6c0.9,0.4,92.6,37.3,240,55.1c135.8,16.4,348.2,19.6,588.8-58.8l11.8,36.3c-109.4,35.6-222.4,58-335.7,66.4C559,802.1,524.3,803.4,489.7,803.4z"/><path d="M480.9,29.1h38.1v941.9h-38.1V29.1z"/><path d="M462.9,966"/><path d="M499.9,988.3C316.1,910.5,226.7,748.8,226.7,494c0-118.9,28.3-228.7,81.9-317.4C357.9,95.1,425.3,37.3,498.3,13.8L510,50.1c-64.3,20.7-124.2,72.6-168.7,146.3C291.3,279,264.9,382,264.9,494c0,237.8,81.8,388,249.9,459.2L499.9,988.3z"/><path d="M511.4,987.5l-14.9-35.1C664.7,881.2,746.4,731,746.4,493.2c0-112-26.4-214.9-76.4-297.6C625.5,121.9,565.6,69.9,501.3,49.3L513,13C586,36.5,653.4,94.3,702.7,175.8c53.6,88.7,81.9,198.4,81.9,317.4C784.6,748,695.2,909.7,511.4,987.5z"/></g>
</svg>
